<svg xmlns="http://www.w3.org/2000/svg" width="54" height="54" viewBox="0 0 54 54"><g fill="none"><path d="M27,0A27,27,0,1,1,0,27,27,27,0,0,1,27,0Z" stroke="none"/><path d="M 27 8 C 16.52336883544922 8 8 16.52336883544922 8 27 C 8 37.47663116455078 16.52336883544922 46 27 46 C 37.47663116455078 46 46 37.47663116455078 46 27 C 46 16.52336883544922 37.47663116455078 8 27 8 M 27 0 C 41.91169357299805 0 54 12.08830642700195 54 27 C 54 41.91169357299805 41.91169357299805 54 27 54 C 12.08830642700195 54 0 41.91169357299805 0 27 C 0 12.08830642700195 12.08830642700195 0 27 0 Z" stroke="none" fill="#ee5613"/></g><circle cx="9" cy="9" r="9" transform="translate(18 18)" fill="#06adb9"/></svg>